<?xml version="1.0" encoding="UTF-8"?>
<svg width="2959px" height="350px" viewBox="0 0 2959 350" version="1.1" xmlns="http://www.w3.org/2000/svg" xmlns:xlink="http://www.w3.org/1999/xlink">
    <title>Artboard</title>
    <defs>
        <path d="M200,48 L200,72 L72,72 L72,139 L200,139 L200,350 L0,350 L0,326 L176,326 L176,163 L48,163 L48,48 L200,48 Z M0,0 L200,0 L200,24 L24,24 L24,187 L152,187 L152,302 L0,302 L0,278 L128,278 L128,211 L0,211 L0,0 Z" id="path-1"></path>
    </defs>
    <g id="Artboard" stroke="none" stroke-width="1" fill="none" fill-rule="evenodd">
        <g id="Sparksuite-(all-black)" transform="translate(383.000000, 39.000000)" fill="#000000" fill-rule="nonzero">
            <path d="M1538.098,36.057 C1535.81319,38.9130143 1533.56648,41.7689943 1531.35784,44.6249949 L1529.7085,46.767 C1526.97149,50.3370179 1524.17501,53.9069822 1521.319,57.477 C1519.41499,55.5729905 1516.91602,53.4905113 1513.822,51.2295 C1510.72798,48.9684887 1507.21752,46.8860095 1503.2905,44.982 C1499.36348,43.0779905 1494.96052,41.4715065 1490.0815,40.1625 C1485.20248,38.8534935 1480.02603,38.199 1474.552,38.199 C1460.74793,38.199 1450.51403,42.1259607 1443.85,49.98 C1437.18597,57.8340393 1433.854,67.1159465 1433.854,77.826 C1433.854,83.7760298 1434.98449,88.7739798 1437.2455,92.82 C1439.50651,96.8660202 1442.48148,100.257486 1446.1705,102.9945 C1449.85952,105.731514 1454.02448,108.05199 1458.6655,109.956 C1463.30652,111.86001 1468.12598,113.644992 1473.124,115.311 C1480.97804,118.167014 1489.42695,121.55848 1498.471,125.4855 C1507.51505,129.41252 1515.90446,134.41047 1523.6395,140.4795 C1531.37454,146.54853 1537.80047,153.985956 1542.9175,162.792 C1548.03453,171.598044 1550.593,182.188938 1550.593,194.565 C1550.593,205.275054 1548.62952,214.913957 1544.7025,223.482 C1540.77548,232.050043 1535.42053,239.36847 1528.6375,245.4375 C1521.85447,251.50653 1513.94105,256.147484 1504.897,259.3605 C1495.85295,262.573516 1486.33305,264.18 1476.337,264.18 C1467.29295,264.18 1458.48704,262.930512 1449.919,260.4315 C1441.35096,257.932488 1433.49704,254.71952 1426.357,250.7925 C1419.21696,246.86548 1412.85053,242.522024 1407.2575,237.762 C1401.66447,233.001976 1397.32102,228.242024 1394.227,223.482 L1412.791,204.918 C1415.88502,208.250017 1419.57398,211.760482 1423.858,215.4495 C1428.14202,219.138518 1432.78298,222.529985 1437.781,225.624 C1442.77902,228.718015 1448.25297,231.21699 1454.203,233.121 C1460.15303,235.02501 1466.57897,235.977 1473.481,235.977 C1479.66903,235.977 1485.61897,235.084509 1491.331,233.2995 C1497.04303,231.514491 1502.10048,228.896517 1506.5035,225.4455 C1510.90652,221.994483 1514.41699,217.651026 1517.035,212.415 C1519.65301,207.178974 1520.962,201.110035 1520.962,194.208 C1520.962,184.687952 1518.64152,176.95303 1514.0005,171.003 C1509.35948,165.05297 1503.64753,160.11452 1496.8645,156.1875 C1490.08147,152.26048 1483.00104,149.107012 1475.623,146.727 C1468.24496,144.346988 1461.81903,142.086011 1456.345,139.944 C1452.06098,138.277992 1446.94403,136.017014 1440.994,133.161 C1435.04397,130.304986 1429.39153,126.437524 1424.0365,121.5585 C1418.68147,116.679476 1414.10002,110.610536 1410.292,103.3515 C1406.58162,96.2785928 1404.56592,87.6806327 1404.24483,77.5573736 L1404.223,76.755 C1403.985,68.9009607 1405.05599,61.0470393 1407.436,53.193 C1409.81601,45.3389607 1413.74297,38.1990321 1419.217,31.773 C1424.69103,25.3469679 1431.94995,20.1110202 1440.994,16.065 C1450.03805,12.0189798 1461.10493,9.996 1474.195,9.996 C1483.71505,9.996 1493.59195,11.6619833 1503.826,14.994 C1514.06005,18.3260167 1525.48394,25.3469465 1538.098,36.057 Z M1766.892,264.18 C1754.03994,264.18 1742.14005,262.395018 1731.192,258.825 C1720.24395,255.254982 1710.72404,249.959535 1702.632,242.9385 C1694.53996,235.917465 1688.23302,227.171052 1683.711,216.699 C1679.18898,206.226948 1676.928,194.208068 1676.928,180.642 L1676.928,11.424 L1706.559,11.424 L1706.559,179.571 C1706.559,188.615045 1708.04649,196.647465 1711.0215,203.6685 C1713.99651,210.689535 1718.16147,216.579976 1723.5165,221.34 C1728.87153,226.100024 1735.23796,229.729488 1742.616,232.2285 C1749.99404,234.727512 1758.08596,235.977 1766.892,235.977 C1775.69804,235.977 1783.78996,234.727512 1791.168,232.2285 C1798.54604,229.729488 1804.91247,226.100024 1810.2675,221.34 C1815.62253,216.579976 1819.84698,210.689535 1822.941,203.6685 C1826.03502,196.647465 1827.582,188.615045 1827.582,179.571 L1827.582,11.424 L1857.213,11.424 L1857.213,180.642 C1857.213,194.208068 1854.89252,206.226948 1850.2515,216.699 C1845.61048,227.171052 1839.24404,235.917465 1831.152,242.9385 C1823.05996,249.959535 1813.54005,255.254982 1802.592,258.825 C1791.64395,262.395018 1779.74406,264.18 1766.892,264.18 Z M1988.903,11.424 L2018.534,11.424 L2018.534,261.324 L1988.903,261.324 L1988.903,11.424 Z M2321.227,11.424 L2321.227,39.627 L2237.689,39.627 L2237.689,261.324 L2208.058,261.324 L2208.058,39.627 L2123.806,39.627 L2123.806,11.424 L2321.227,11.424 Z M2416.86,261.324 L2416.86,11.424 L2570.727,11.424 L2570.727,39.627 L2446.491,39.627 L2446.491,121.38 L2556.804,121.38 L2556.804,149.583 L2446.491,149.583 L2446.491,233.121 L2575.725,233.121 L2575.725,261.324 L2416.86,261.324 Z" id="SUITE"></path>
            <path d="M143.871,36.057 C141.586189,38.9130143 139.339484,41.7689943 137.130844,44.6249949 L135.4815,46.767 C132.744486,50.3370179 129.948014,53.9069822 127.092,57.477 C125.18799,55.5729905 122.689015,53.4905113 119.595,51.2295 C116.500985,48.9684887 112.99052,46.8860095 109.0635,44.982 C105.13648,43.0779905 100.733524,41.4715065 95.8545,40.1625 C90.9754756,38.8534935 85.7990274,38.199 80.325,38.199 C66.520931,38.199 56.2870333,42.1259607 49.623,49.98 C42.9589667,57.8340393 39.627,67.1159465 39.627,77.826 C39.627,83.7760298 40.7574887,88.7739798 43.0185,92.82 C45.2795113,96.8660202 48.2544816,100.257486 51.9435,102.9945 C55.6325184,105.731514 59.7974768,108.05199 64.4385,109.956 C69.0795232,111.86001 73.898975,113.644992 78.897,115.311 C86.7510393,118.167014 95.1999548,121.55848 104.244,125.4855 C113.288045,129.41252 121.677461,134.41047 129.4125,140.4795 C137.147539,146.54853 143.573474,153.985956 148.6905,162.792 C153.807526,171.598044 156.366,182.188938 156.366,194.565 C156.366,205.275054 154.40252,214.913957 150.4755,223.482 C146.54848,232.050043 141.193534,239.36847 134.4105,245.4375 C127.627466,251.50653 119.714045,256.147484 110.67,259.3605 C101.625955,262.573516 92.10605,264.18 82.11,264.18 C73.0659548,264.18 64.2600428,262.930512 55.692,260.4315 C47.1239572,257.932488 39.2700357,254.71952 32.13,250.7925 C24.9899643,246.86548 18.623528,242.522024 13.0305,237.762 C7.43747204,233.001976 3.09401547,228.242024 0,223.482 L18.564,204.918 C21.6580155,208.250017 25.3469786,211.760482 29.631,215.4495 C33.9150214,219.138518 38.555975,222.529985 43.554,225.624 C48.552025,228.718015 54.0259703,231.21699 59.976,233.121 C65.9260298,235.02501 72.3519655,235.977 79.254,235.977 C85.4420309,235.977 91.3919714,235.084509 97.104,233.2995 C102.816029,231.514491 107.873478,228.896517 112.2765,225.4455 C116.679522,221.994483 120.189987,217.651026 122.808,212.415 C125.426013,207.178974 126.735,201.110035 126.735,194.208 C126.735,184.687952 124.414523,176.95303 119.7735,171.003 C115.132477,165.05297 109.420534,160.11452 102.6375,156.1875 C95.8544661,152.26048 88.7740369,149.107012 81.396,146.727 L79.4074138,146.080857 C72.8574782,143.936884 67.0943885,141.891282 62.118,139.944 C57.8339786,138.277992 52.7170298,136.017014 46.767,133.161 C40.8169703,130.304986 35.1645268,126.437524 29.8095,121.5585 C24.4544732,116.679476 19.873019,110.610536 16.065,103.3515 C12.3546225,96.2785928 10.3389173,87.6806327 10.0178285,77.5573736 L9.996,76.755 C9.75799881,68.9009607 10.8289881,61.0470393 13.209,53.193 C15.5890119,45.3389607 19.5159726,38.1990321 24.99,31.773 C30.4640274,25.3469679 37.7229548,20.1110202 46.767,16.065 C55.8110452,12.0189798 66.8779346,9.996 79.968,9.996 C89.4880476,9.996 99.3649488,11.6619833 109.599,14.994 C119.833051,18.3260167 131.256937,25.3469465 143.871,36.057 Z M305.906,121.38 L336.965,121.38 C347.437052,121.38 356.064466,120.011514 362.8475,117.2745 C369.630534,114.537486 375.04498,111.14602 379.091,107.1 C383.13702,103.05398 385.992992,98.532025 387.659,93.534 C389.325008,88.535975 390.158,83.7760226 390.158,79.254 C390.158,74.0179738 388.789514,68.9605244 386.0525,64.0815 C383.315486,59.2024756 379.626523,54.9185184 374.9855,51.2295 C370.344477,47.5404816 364.751533,44.6250107 358.2065,42.483 C351.661467,40.3409893 344.700037,39.27 337.322,39.27 L305.906,39.27 L305.906,121.38 Z M276.275,261.324 L276.275,11.424 L335.18,11.424 C343.27204,11.424 352.256451,12.6734875 362.1335,15.1725 C372.010549,17.6715125 381.232957,21.6579726 389.801,27.132 C398.369043,32.6060274 405.508971,39.6269572 411.221,48.195 C416.933029,56.7630428 419.789,67.1159393 419.789,79.254 C419.789,100.912108 413.363064,118.107436 400.511,130.8405 C387.658936,143.573564 369.095121,149.94 344.819,149.94 L305.906,149.94 L305.906,261.324 L276.275,261.324 Z M636.802,77.469 L633.589,65.688 C630.256983,77.5880595 626.092025,89.1309441 621.094,100.317 C616.095975,111.503056 611.217024,122.807943 606.457,134.232 L660.721,134.232 C657.484184,126.615962 654.285486,119.038095 651.124846,111.498253 L648.7615,105.8505 C644.83448,96.449453 640.84802,86.9890476 636.802,77.469 Z M744.259,261.324 L714.628,261.324 C709.106372,248.186334 703.546731,235.010747 697.94897,221.796984 L693.7435,211.8795 C686.722465,195.338417 679.761035,178.857082 672.859,162.435 L594.319,162.435 C588.797372,175.572666 583.237731,188.748253 577.63997,201.962016 L573.4345,211.8795 C566.413465,228.420583 559.452035,244.901918 552.55,261.324 L522.919,261.324 L539.594494,221.975404 C546.991524,204.515747 554.369497,187.094211 561.728447,169.710714 L589.263906,104.643778 C603.962789,69.9148115 618.737726,35.0337752 633.589,0 L644.713147,26.2467033 C655.822989,52.4647889 666.889932,78.5970531 677.914094,104.643778 L699.933906,156.680222 C714.632789,191.409189 729.407726,226.290225 744.259,261.324 Z M886.659,121.38 L917.718,121.38 C928.190052,121.38 936.817466,120.011514 943.6005,117.2745 C950.383534,114.537486 955.79798,111.14602 959.844,107.1 C963.89002,103.05398 966.745992,98.532025 968.412,93.534 C970.078008,88.535975 970.911,83.7760226 970.911,79.254 C970.911,74.0179738 969.542514,68.9605244 966.8055,64.0815 C964.068486,59.2024756 960.379523,54.9185184 955.7385,51.2295 C951.097477,47.5404816 945.504533,44.6250107 938.9595,42.483 C932.414467,40.3409893 925.453037,39.27 918.075,39.27 L886.659,39.27 L886.659,121.38 Z M857.028,261.324 L857.028,11.424 L915.933,11.424 C924.02504,11.424 933.009451,12.6734875 942.8865,15.1725 C952.763549,17.6715125 961.985957,21.6579726 970.554,27.132 C979.122043,32.6060274 986.261971,39.6269572 991.974,48.195 C997.686029,56.7630428 1000.542,67.1159393 1000.542,79.254 C1000.542,97.1040893 996.079545,112.03844 987.1545,124.0575 C978.229455,136.07656 965.199086,143.989981 948.063,147.798 L1001.613,261.324 L969.483,261.324 L917.004,149.94 L886.659,149.94 L886.659,261.324 L857.028,261.324 Z M1300.022,261.324 L1264.679,261.324 C1249.99093,242.759907 1235.39047,224.239767 1220.87731,205.763171 L1213.628,196.5285 C1196.72992,174.989392 1179.71309,153.391108 1162.577,131.733 C1159.31298,134.793015 1156.13644,137.809277 1153.04729,140.781853 L1151.51,142.2645 C1147.93998,145.715517 1144.25102,149.225982 1140.443,152.796 L1140.443,261.324 L1110.812,261.324 L1110.812,11.424 L1140.443,11.424 L1140.443,109.242 C1140.2526,110.765208 1140.10028,112.288397 1139.98604,113.811597 L1139.9075,114.954 C1139.7885,116.85801 1139.61,118.76199 1139.372,120.666 L1140.77144,118.980959 C1141.2284,118.4288 1141.67584,117.886162 1142.11376,117.353042 L1142.7635,116.5605 C1143.83451,115.251493 1144.96499,113.883007 1146.155,112.455 C1161.77383,97.6691761 1177.25579,82.9291004 1192.60124,68.2344347 L1199.1695,61.9395 C1216.66259,45.1604161 1234.33391,28.3220845 1252.184,11.424 L1288.598,11.424 C1272.53292,26.8464771 1256.56445,42.0759679 1240.69219,57.1128421 L1235.405,62.118 C1217.79291,78.7780833 1200.06209,95.6759143 1182.212,112.812 L1194.05015,127.777476 C1209.81527,147.693321 1225.50412,167.456702 1241.117,187.068 C1260.6331,211.582123 1280.2679,236.333875 1300.022,261.324 Z" id="SPARK"></path>
        </g>
        <g id="Icon-(all-black)">
            <mask id="mask-2" fill="white">
                <use xlink:href="#path-1"></use>
            </mask>
            <use id="Mask" fill="#FFFFFF" xlink:href="#path-1"></use>
            <polygon id="Red" fill="#000000" mask="url(#mask-2)" points="-0.624023438 276.914062 129.694336 276.923828 202.18457 309.540039 201.628906 350.666016 -1.29228209 350.666016"></polygon>
            <polygon id="Blue" fill="#000000" mask="url(#mask-2)" points="-4.04980469 211.150391 121.081055 137.964355 200.588379 137.90332 200.757812 309.956055 128 278"></polygon>
            <polygon id="Green" fill="#000000" mask="url(#mask-2)" points="0.0302734375 210.059204 200.572266 91.0253906 200.572266 -2.01318359 -0.475097656 -1.34960938 -1.05664062 210.50293"></polygon>
        </g>
    </g>
</svg>